<svg width="232" height="210" viewBox="0 0 232 210" fill="none" xmlns="http://www.w3.org/2000/svg">
<path d="M0 51.3C0 45.449 0 42.5235 0.271757 40.062C2.58391 19.1187 19.1187 2.58391 40.062 0.271757C42.5235 0 45.449 0 51.3 0H180.7C186.551 0 189.477 0 191.938 0.271757C212.881 2.58391 229.416 19.1187 231.728 40.062C232 42.5235 232 45.449 232 51.3V158.7C232 164.551 232 167.476 231.728 169.938C229.416 190.881 212.881 207.416 191.938 209.728C189.477 210 186.551 210 180.7 210H51.3C45.449 210 42.5235 210 40.062 209.728C19.1187 207.416 2.58391 190.881 0.271757 169.938C0 167.476 0 164.551 0 158.7V51.3Z" fill="#183A58"/>
<g clip-path="url(#clip0_2_91)">
<path d="M103.804 33H63.1476C56.991 33 52 38.2112 52 44.6396V85.4468C52 91.8752 56.991 97.0865 63.1476 97.0865H103.804C109.96 97.0865 114.951 91.8752 114.951 85.4468V44.6396C114.951 38.2112 109.96 33 103.804 33Z" fill="#001E36"/>
<path d="M66.175 77.9414V49.7655C66.175 49.5602 66.2595 49.4569 66.4284 49.4569C66.8784 49.4569 67.2892 49.45 67.9088 49.4348C68.5278 49.4204 69.1964 49.4057 69.9147 49.3907C70.6327 49.3762 71.3929 49.3615 72.1952 49.3466C72.9975 49.3322 73.7928 49.3248 74.5811 49.3246C76.7203 49.3246 78.5221 49.6038 79.9865 50.1624C81.3074 50.6289 82.5121 51.3971 83.5128 52.4111C84.361 53.29 85.0166 54.3506 85.4342 55.5197C85.8292 56.6575 86.0294 57.859 86.0255 59.0693C86.0255 61.4214 85.5046 63.3615 84.463 64.8896C83.4144 66.4241 81.9405 67.586 80.24 68.2187C78.4663 68.9098 76.4953 69.1441 74.3278 69.1441C73.7082 69.1441 73.2718 69.1368 73.0186 69.1221C72.7653 69.1075 72.3853 69.1002 71.8785 69.1V77.8973C71.8859 77.9512 71.8811 78.0062 71.8646 78.0578C71.8481 78.1095 71.8203 78.1564 71.7834 78.195C71.7466 78.2335 71.7016 78.2625 71.6521 78.2797C71.6026 78.2969 71.55 78.3019 71.4984 78.2942H66.4706C66.2733 78.2942 66.175 78.177 66.175 77.9414ZM71.8785 54.7481V63.9379C72.244 63.9675 72.5818 63.9822 72.8919 63.982H74.2855C75.3109 63.9784 76.3295 63.8086 77.305 63.4787C78.1416 63.2192 78.8892 62.7141 79.4587 62.0236C80.0076 61.3477 80.2821 60.4071 80.2822 59.2016C80.3045 58.3487 80.0919 57.507 79.6698 56.7764C79.226 56.07 78.5846 55.5234 77.8328 55.2111C76.8512 54.8127 75.8027 54.6252 74.75 54.66C74.0743 54.66 73.4761 54.6673 72.9553 54.682C72.4341 54.6971 72.0751 54.7192 71.8785 54.7481V54.7481Z" fill="#31A8FF"/>
<path d="M102.353 62.2671C101.56 61.8413 100.715 61.5298 99.8407 61.3411C98.8779 61.1104 97.8936 60.9921 96.9058 60.9883C96.3714 60.9732 95.8379 61.04 95.3221 61.1868C94.9939 61.2631 94.7021 61.4584 94.4986 61.7379C94.361 61.9615 94.2877 62.2217 94.2875 62.4875C94.2952 62.7454 94.3843 62.9934 94.5409 63.193C94.7876 63.4943 95.0889 63.7416 95.4277 63.9205C96.0298 64.2591 96.6502 64.5609 97.2858 64.8245C98.7031 65.3198 100.057 65.9936 101.319 66.8307C102.178 67.397 102.889 68.1773 103.388 69.1015C103.808 69.9767 104.018 70.9451 104 71.9236C104.026 73.2157 103.672 74.485 102.987 75.5613C102.253 76.6539 101.235 77.5033 100.052 78.0085C98.7704 78.5962 97.1868 78.8902 95.301 78.8904C94.103 78.903 92.907 78.7848 91.7326 78.5376C90.8073 78.3605 89.9065 78.0642 89.051 77.6557C88.9586 77.606 88.8818 77.5298 88.8295 77.4361C88.7771 77.3423 88.7514 77.235 88.7554 77.1266V72.3645C88.7503 72.3179 88.7574 72.2707 88.776 72.228C88.7946 72.1852 88.824 72.1486 88.861 72.122C88.8973 72.1006 88.9389 72.0912 88.9804 72.0952C89.0219 72.0991 89.0613 72.1161 89.0932 72.144C90.1036 72.7661 91.2007 73.2198 92.3449 73.4889C93.3535 73.7528 94.388 73.8934 95.4277 73.9078C96.4128 73.9078 97.1378 73.7755 97.6025 73.5109C97.8124 73.4106 97.9899 73.249 98.1136 73.0455C98.2372 72.842 98.3018 72.6055 98.2994 72.3645C98.2994 71.9828 98.0882 71.6154 97.6659 71.2622C97.2436 70.9094 96.385 70.4832 95.0898 69.9834C93.7638 69.5015 92.5066 68.834 91.3525 67.9992C90.527 67.3998 89.8473 66.607 89.3677 65.6843C88.9524 64.8154 88.7424 63.8553 88.7554 62.8844C88.753 61.7177 89.06 60.5731 89.6422 59.5773C90.306 58.4808 91.2593 57.608 92.3872 57.064C93.6257 56.4177 95.1741 56.0944 97.0325 56.0939C98.1208 56.0848 99.2081 56.1659 100.284 56.3364C101.063 56.4396 101.825 56.6548 102.548 56.9758C102.605 56.993 102.658 57.0238 102.702 57.0659C102.746 57.108 102.78 57.1602 102.801 57.2183C102.83 57.326 102.844 57.4373 102.844 57.549V62.0025C102.846 62.0543 102.836 62.106 102.814 62.1524C102.792 62.1989 102.758 62.2384 102.717 62.2671C102.66 62.2964 102.598 62.3116 102.535 62.3116C102.472 62.3116 102.41 62.2964 102.353 62.2671V62.2671Z" fill="#31A8FF"/>
</g>
<g clip-path="url(#clip1_2_91)">
<path d="M175.99 117.216H135.334C129.177 117.216 124.186 122.427 124.186 128.855V169.663C124.186 176.091 129.177 181.302 135.334 181.302H175.99C182.147 181.302 187.138 176.091 187.138 169.663V128.855C187.138 122.427 182.147 117.216 175.99 117.216Z" fill="#00005B"/>
<path d="M149.476 155.558H139.72L137.736 162.008C137.709 162.126 137.643 162.229 137.551 162.302C137.458 162.374 137.344 162.411 137.229 162.405H132.288C132.006 162.405 131.908 162.243 131.992 161.92L140.438 136.627C140.523 136.362 140.607 136.104 140.692 135.766C140.802 135.177 140.859 134.579 140.861 133.98C140.855 133.938 140.859 133.895 140.872 133.855C140.884 133.815 140.906 133.778 140.935 133.748C140.963 133.718 140.998 133.696 141.037 133.682C141.075 133.669 141.116 133.665 141.156 133.671H147.871C148.067 133.671 148.18 133.745 148.209 133.892L157.795 161.964C157.879 162.258 157.795 162.405 157.542 162.405H152.052C151.957 162.416 151.862 162.391 151.785 162.334C151.707 162.277 151.652 162.193 151.629 162.096L149.476 155.558ZM141.241 150.12H147.913C147.744 149.532 147.547 148.871 147.322 148.135C147.096 147.401 146.857 146.615 146.604 145.776C146.351 144.939 146.097 144.101 145.844 143.263C145.591 142.425 145.358 141.617 145.147 140.838C144.936 140.059 144.746 139.347 144.577 138.699H144.535C144.297 139.89 144.001 141.068 143.648 142.227C143.253 143.55 142.852 144.902 142.444 146.284C142.036 147.666 141.635 148.944 141.241 150.12Z" fill="#9999FF"/>
<path d="M173.336 153.047H165.017C165.118 153.907 165.392 154.735 165.819 155.477C166.291 156.212 166.959 156.787 167.74 157.13C168.799 157.609 169.944 157.843 171.098 157.817C172.013 157.799 172.924 157.695 173.821 157.505C174.624 157.392 175.41 157.178 176.163 156.868C176.304 156.751 176.374 156.824 176.374 157.088V161.277C176.381 161.391 176.36 161.505 176.311 161.608C176.263 161.688 176.198 161.756 176.121 161.806C175.286 162.193 174.406 162.466 173.505 162.62C172.28 162.86 171.035 162.971 169.788 162.951C167.789 162.951 166.114 162.627 164.763 161.981C163.486 161.393 162.358 160.502 161.469 159.379C160.639 158.321 160.021 157.099 159.653 155.786C159.289 154.49 159.104 153.146 159.104 151.795C159.1 150.32 159.321 148.854 159.759 147.452C160.18 146.084 160.847 144.812 161.723 143.704C162.587 142.609 163.667 141.721 164.89 141.102C166.128 140.471 167.593 140.244 169.282 140.244C170.683 140.207 172.074 140.493 173.357 141.082C174.436 141.562 175.385 142.311 176.123 143.263C176.815 144.195 177.344 145.247 177.685 146.372C178.018 147.455 178.189 148.585 178.192 149.723C178.192 150.37 178.171 150.958 178.129 151.486C178.087 152.016 178.052 152.398 178.023 152.633C178.012 152.73 177.968 152.82 177.897 152.885C177.827 152.95 177.737 152.986 177.643 152.986C177.474 152.986 177.186 153.008 176.778 153.052C176.369 153.096 175.862 153.125 175.257 153.14C174.651 153.155 174.011 153.047 173.336 153.047ZM165.017 149.031H170.549C171.224 149.031 171.724 149.023 172.048 149.009C172.264 148.986 172.474 148.914 172.66 148.797V148.532C172.652 148.187 172.595 147.846 172.491 147.518C172.263 146.766 171.805 146.112 171.187 145.658C170.569 145.204 169.826 144.975 169.071 145.005C168.36 144.96 167.652 145.132 167.033 145.5C166.415 145.868 165.912 146.416 165.587 147.077C165.297 147.692 165.105 148.352 165.017 149.031V149.031Z" fill="#9999FF"/>
</g>
<g clip-path="url(#clip2_2_91)">
<path d="M135.334 33H175.99C182.154 33 187.138 38.2036 187.138 44.6396V85.4468C187.138 91.8829 182.154 97.0865 175.99 97.0865H135.334C129.17 97.0865 124.186 91.8829 124.186 85.4468V44.6396C124.186 38.2036 129.17 33 135.334 33Z" fill="#00005B"/>
<path d="M139.137 77.9427V49.7611C139.137 49.5693 139.216 49.4598 139.399 49.4598C139.845 49.4598 140.265 49.4598 140.868 49.4324C141.498 49.405 142.154 49.405 142.862 49.3776C143.57 49.3502 144.331 49.3502 145.144 49.3229C145.957 49.2955 146.744 49.2955 147.531 49.2955C149.681 49.2955 151.465 49.5693 152.934 50.1445C154.245 50.6101 155.452 51.3769 156.449 52.3902C157.288 53.2666 157.944 54.3347 158.364 55.5124C158.757 56.6627 158.967 57.8403 158.967 59.0728C158.967 61.4281 158.442 63.3726 157.393 64.9063C156.344 66.44 154.875 67.5902 153.17 68.2475C151.386 68.9322 149.419 69.1787 147.268 69.1787C146.639 69.1787 146.219 69.1787 145.957 69.1513C145.695 69.1239 145.327 69.1239 144.829 69.1239V77.9153C144.855 78.107 144.724 78.2713 144.54 78.2987C144.514 78.2987 144.488 78.2987 144.436 78.2987H139.452C139.242 78.2987 139.137 78.1892 139.137 77.9427ZM144.855 54.7456V63.9477C145.222 63.9751 145.563 64.0025 145.878 64.0025H147.268C148.291 64.0025 149.314 63.8382 150.285 63.5095C151.124 63.263 151.859 62.7427 152.436 62.058C152.986 61.3733 153.249 60.4421 153.249 59.2371C153.275 58.3881 153.065 57.5391 152.645 56.7996C152.2 56.0875 151.57 55.5398 150.809 55.2385C149.839 54.8277 148.79 54.6634 147.714 54.6908C147.032 54.6908 146.429 54.6908 145.931 54.7182C145.406 54.6908 145.039 54.7182 144.855 54.7456Z" fill="#9999FF"/>
<path d="M162.639 56.3339H167.229C167.491 56.3339 167.701 56.5256 167.78 56.7721C167.859 56.9911 167.911 57.2102 167.937 57.4567C167.99 57.7306 168.042 58.0319 168.069 58.3057C168.095 58.607 168.121 58.9357 168.121 59.2917C168.908 58.3331 169.852 57.5389 170.928 56.9364C172.134 56.2243 173.524 55.8683 174.914 55.8683C175.098 55.8409 175.255 55.9778 175.282 56.1695C175.282 56.1969 175.282 56.2243 175.282 56.2791V61.6196C175.282 61.8387 175.151 61.9209 174.862 61.9209C173.918 61.8935 172.947 61.9757 172.029 62.1948C171.269 62.3591 170.534 62.6056 169.826 62.9342C169.328 63.1807 168.855 63.5093 168.488 63.9475V77.9151C168.488 78.189 168.383 78.2985 168.147 78.2985H162.98C162.77 78.3259 162.586 78.189 162.56 77.9699C162.56 77.9425 162.56 77.8877 162.56 77.8603V62.6877C162.56 62.0304 162.56 61.3457 162.534 60.6337C162.508 59.9216 162.508 59.2095 162.482 58.4975C162.482 57.8675 162.429 57.265 162.377 56.6351C162.35 56.4982 162.429 56.3612 162.56 56.3339C162.56 56.3065 162.613 56.3065 162.639 56.3339Z" fill="#9999FF"/>
</g>
<g clip-path="url(#clip3_2_91)">
<path d="M103.804 117.216H63.1476C56.9909 117.216 52 122.427 52 128.855V169.663C52 176.091 56.9909 181.302 63.1476 181.302H103.804C109.96 181.302 114.951 176.091 114.951 169.663V128.855C114.951 122.427 109.96 117.216 103.804 117.216Z" fill="#330000"/>
<path d="M82.5052 155.675H72.7502L70.7654 162.113C70.7384 162.23 70.6729 162.334 70.5804 162.407C70.4879 162.479 70.3741 162.516 70.2586 162.51H65.3178C65.036 162.51 64.9375 162.348 65.0221 162.025L73.468 136.627C73.5526 136.362 73.6371 136.061 73.7215 135.723C73.832 135.135 73.8885 134.537 73.8904 133.937C73.8847 133.895 73.8884 133.852 73.9012 133.812C73.914 133.772 73.9356 133.736 73.9643 133.706C73.993 133.676 74.028 133.653 74.0665 133.64C74.1049 133.626 74.1459 133.622 74.186 133.628H80.9005C81.0972 133.628 81.2098 133.702 81.2383 133.849L90.8246 162.069C90.909 162.363 90.8245 162.51 90.5711 162.51H85.0812C84.9869 162.521 84.8921 162.495 84.8143 162.439C84.7366 162.382 84.6814 162.297 84.6589 162.201L82.5052 155.675ZM74.2704 150.12H80.9427C80.7738 149.532 80.5767 148.87 80.3515 148.135C80.1259 147.401 79.8866 146.615 79.6337 145.776C79.3802 144.939 79.1268 144.101 78.8734 143.263C78.6201 142.425 78.3879 141.617 78.1767 140.838C77.9655 140.059 77.7755 139.346 77.6066 138.699H77.5644C77.3266 139.89 77.0307 141.067 76.6776 142.227C76.283 143.55 75.8818 144.902 75.4739 146.283C75.0655 147.665 74.6643 148.944 74.2704 150.12H74.2704Z" fill="#FF9A00"/>
<path d="M96.525 138.302C96.0942 138.321 95.6647 138.243 95.2645 138.076C94.8642 137.909 94.5023 137.656 94.2023 137.332C93.9032 136.995 93.6708 136.599 93.5186 136.168C93.3664 135.737 93.2974 135.278 93.3154 134.819C93.3001 134.364 93.3768 133.911 93.5405 133.49C93.7042 133.068 93.9513 132.687 94.2656 132.372C94.5769 132.06 94.9443 131.816 95.3466 131.653C95.7489 131.49 96.1781 131.412 96.6094 131.424C97.6229 131.424 98.4183 131.74 98.9954 132.372C99.2867 132.7 99.5131 133.086 99.6617 133.505C99.8102 133.925 99.878 134.372 99.861 134.819C99.8787 135.28 99.8074 135.74 99.6515 136.172C99.4955 136.604 99.258 136.998 98.9531 137.332C98.6345 137.66 98.2542 137.916 97.8363 138.083C97.4184 138.25 96.9719 138.325 96.525 138.302ZM93.611 162.069V140.992C93.611 140.728 93.7232 140.595 93.9489 140.595H99.1432C99.3682 140.595 99.4808 140.728 99.4811 140.992V162.069C99.4811 162.363 99.3684 162.51 99.1432 162.51H93.9911C93.7378 162.51 93.6111 162.363 93.611 162.069V162.069Z" fill="#FF9A00"/>
</g>
<defs>
<clipPath id="clip0_2_91">
<rect width="62.9512" height="64.0865" fill="white" transform="translate(52 33)"/>
</clipPath>
<clipPath id="clip1_2_91">
<rect width="62.9512" height="64.0865" fill="white" transform="translate(124.186 117.216)"/>
</clipPath>
<clipPath id="clip2_2_91">
<rect width="62.9512" height="64.0865" fill="white" transform="translate(124.186 33)"/>
</clipPath>
<clipPath id="clip3_2_91">
<rect width="62.9512" height="64.0865" fill="white" transform="translate(52 117.216)"/>
</clipPath>
</defs>
</svg>
