<svg width="249" height="210" viewBox="0 0 249 210" fill="none" xmlns="http://www.w3.org/2000/svg">
<path d="M0 51.3C0 45.449 0 42.5235 0.271757 40.062C2.58391 19.1187 19.1187 2.58391 40.062 0.271757C42.5235 0 45.449 0 51.3 0H197.7C203.551 0 206.476 0 208.938 0.271757C229.881 2.58391 246.416 19.1187 248.728 40.062C249 42.5235 249 45.449 249 51.3V158.7C249 164.551 249 167.476 248.728 169.938C246.416 190.881 229.881 207.416 208.938 209.728C206.476 210 203.551 210 197.7 210H51.3C45.449 210 42.5235 210 40.062 209.728C19.1187 207.416 2.58391 190.881 0.271757 169.938C0 167.476 0 164.551 0 158.7V51.3Z" fill="#183A58"/>
</svg>
