<svg width="25" height="21" viewBox="0 0 25 21" fill="none" xmlns="http://www.w3.org/2000/svg">
<path opacity="0.3" d="M0 2.43939C0 1.73231 0.28154 1.14898 0.844595 0.689394C1.40765 0.229791 2.13965 0 3.04054 0C3.92536 0 4.64124 0.226248 5.18822 0.678788C5.75128 1.14545 6.03282 1.75352 6.03282 2.50303C6.03282 3.18182 5.75934 3.74746 5.21236 4.2C4.6493 4.66667 3.90927 4.9 2.99228 4.9H2.96815C2.08333 4.9 1.36745 4.66667 0.820463 4.2C0.27348 3.73333 0 3.14646 0 2.43939ZM0.313707 21V6.8303H5.67085V21H0.313707ZM8.639 21H13.9961V13.0879C13.9961 12.5929 14.0605 12.2111 14.1892 11.9424C14.4144 11.4616 14.7563 11.055 15.2148 10.7227C15.6733 10.3904 16.2484 10.2242 16.9402 10.2242C18.742 10.2242 19.6429 11.2919 19.6429 13.4273V21H25V12.8758C25 10.7828 24.4369 9.19545 23.3108 8.11364C22.1847 7.03182 20.6966 6.49091 18.8465 6.49091C16.7712 6.49091 15.1544 7.27576 13.9961 8.84545V8.88788H13.972L13.9961 8.84545V6.8303H8.639C8.67116 7.28282 8.68726 8.68988 8.68726 11.0515C8.68726 13.4131 8.67116 16.7293 8.639 21Z" fill="white"/>
</svg>
