<svg width="31" height="47" viewBox="0 0 31 47" fill="none" xmlns="http://www.w3.org/2000/svg">
<g clip-path="url(#clip0_2_85)">
<path d="M7.81843 46.6055C12.0376 46.6055 15.4619 43.1812 15.4619 38.962V31.3185H7.81843C3.59922 31.3185 0.174927 34.7428 0.174927 38.962C0.174927 43.1812 3.59922 46.6055 7.81843 46.6055Z" fill="#0ACF83"/>
<path d="M0.174927 23.675C0.174927 19.4558 3.59922 16.0315 7.81843 16.0315H15.4619V31.3185H7.81843C3.59922 31.3185 0.174927 27.8942 0.174927 23.675Z" fill="#621BBB"/>
<path d="M0.174957 8.38795C0.174957 4.16874 3.59925 0.744446 7.81846 0.744446H15.462V16.0315H7.81846C3.59925 16.0315 0.174957 12.6072 0.174957 8.38795Z" fill="#F24E1E"/>
<path d="M15.4619 0.744507H23.1055C27.3247 0.744507 30.749 4.1688 30.749 8.38801C30.749 12.6072 27.3247 16.0315 23.1055 16.0315H15.4619V0.744507Z" fill="#FF7262"/>
<path d="M30.749 23.675C30.749 27.8942 27.3247 31.3185 23.1055 31.3185C18.8862 31.3185 15.4619 27.8942 15.4619 23.675C15.4619 19.4558 18.8862 16.0315 23.1055 16.0315C27.3247 16.0315 30.749 19.4558 30.749 23.675Z" fill="#1ABCFE"/>
</g>
<defs>
<clipPath id="clip0_2_85">
<rect width="30.574" height="45.861" fill="white" transform="translate(0.174957 0.744446)"/>
</clipPath>
</defs>
</svg>
